<?xml version="1.0" encoding="UTF-8" standalone="no"?>
<svg width="200" height="200" viewBox="0 0 200 200" xmlns="http://www.w3.org/2000/svg">
  <!-- O : étoile à 15 pics -->
  <polygon fill="black" points="100.0,5.0 110.4,51.1 138.6,13.2 129.4,59.5 170.6,36.4 143.3,75.0 190.4,70.6 149.7,94.8 194.5,109.9 147.6,115.5 182.3,147.5 137.2,133.5 155.8,176.9 120.3,145.7 119.8,192.9 100.0,150.0 80.2,192.9 79.7,145.7 44.2,176.9 62.8,133.5 17.7,147.5 52.4,115.5 5.5,109.9 50.3,94.8 9.6,70.6 56.7,75.0 29.4,36.4 70.6,59.5 61.4,13.2 89.6,51.1"/>
</svg>
