<?xml version="1.0" encoding="UTF-8" standalone="no"?>
<svg width="200" height="200" viewBox="0 0 200 200" xmlns="http://www.w3.org/2000/svg">
  <!-- P : étoile à 16 pics -->
  <polygon fill="black" points="100.0,5.0 109.8,51.0 136.4,12.2 127.8,58.4 167.2,32.8 141.6,72.2 187.8,63.6 149.0,90.2 195.0,100.0 149.0,109.8 187.8,136.4 141.6,127.8 167.2,167.2 127.8,141.6 136.4,187.8 109.8,149.0 100.0,195.0 90.2,149.0 63.6,187.8 72.2,141.6 32.8,167.2 58.4,127.8 12.2,136.4 51.0,109.8 5.0,100.0 51.0,90.2 12.2,63.6 58.4,72.2 32.8,32.8 72.2,58.4 63.6,12.2 90.2,51.0"/>
</svg>
