<?xml version="1.0" encoding="UTF-8" standalone="no"?>
<svg width="200" height="200" viewBox="0 0 200 200" xmlns="http://www.w3.org/2000/svg">
  <!-- Q : étoile à 17 pics -->
  <polygon fill="black" points="100.0,5.0 109.2,50.9 134.3,11.4 126.3,57.5 164.0,29.8 139.9,69.9 185.0,57.7 148.1,86.3 194.6,91.2 149.8,104.6 191.4,126.0 144.8,122.3 175.8,157.3 133.7,137.0 150.0,180.8 118.1,146.6 117.5,193.4 100.0,150.0 82.5,193.4 81.9,146.6 50.0,180.8 66.3,137.0 24.2,157.3 55.2,122.3 8.6,126.0 50.2,104.6 5.4,91.2 51.9,86.3 15.0,57.7 60.1,69.9 36.0,29.8 73.7,57.5 65.7,11.4 90.8,50.9"/>
</svg>
