<?xml version="1.0" encoding="UTF-8" standalone="no"?>
<svg width="200" height="200" viewBox="0 0 200 200" xmlns="http://www.w3.org/2000/svg">
  <!-- R : étoile à 18 pics -->
  <polygon fill="black" points="100.0,5.0 108.7,50.8 132.5,10.7 125.0,56.7 161.1,27.2 138.3,67.9 182.3,52.5 147.0,82.9 193.6,83.5 150.0,100.0 193.6,116.5 147.0,117.1 182.3,147.5 138.3,132.1 161.1,172.8 125.0,143.3 132.5,189.3 108.7,149.2 100.0,195.0 91.3,149.2 67.5,189.3 75.0,143.3 38.9,172.8 61.7,132.1 17.7,147.5 53.0,117.1 6.4,116.5 50.0,100.0 6.4,83.5 53.0,82.9 17.7,52.5 61.7,67.9 38.9,27.2 75.0,56.7 67.5,10.7 91.3,50.8"/>
</svg>
