<?xml version="1.0" encoding="UTF-8" standalone="no"?>
<svg width="200" height="200" viewBox="0 0 200 200" xmlns="http://www.w3.org/2000/svg">
  <!-- S : étoile à 19 pics -->
  <polygon fill="black" points="100.0,5.0 108.2,50.7 130.8,10.1 123.8,56.0 158.4,25.0 136.8,66.1 179.5,48.0 145.8,79.9 192.1,76.7 149.8,95.9 194.7,107.8 148.5,112.3 187.0,138.2 141.9,127.3 169.9,164.3 130.7,139.5 145.2,183.6 116.2,147.3 115.6,193.7 100.0,150.0 84.4,193.7 83.8,147.3 54.8,183.6 69.3,139.5 30.1,164.3 58.1,127.3 13.0,138.2 51.5,112.3 5.3,107.8 50.2,95.9 7.9,76.7 54.2,79.9 20.5,48.0 63.2,66.1 41.6,25.0 76.2,56.0 69.2,10.1 91.8,50.7"/>
</svg>
