<?xml version="1.0" encoding="UTF-8" standalone="no"?>
<svg width="200" height="200" viewBox="0 0 200 200" xmlns="http://www.w3.org/2000/svg">
  <!-- T : étoile à 20 pics -->
  <polygon fill="black" points="100.0,5.0 107.8,50.6 129.4,9.6 122.7,55.4 155.8,23.1 135.4,64.6 176.9,44.2 144.6,77.3 190.4,70.6 149.4,92.2 195.0,100.0 149.4,107.8 190.4,129.4 144.6,122.7 176.9,155.8 135.4,135.4 155.8,176.9 122.7,144.6 129.4,190.4 107.8,149.4 100.0,195.0 92.2,149.4 70.6,190.4 77.3,144.6 44.2,176.9 64.6,135.4 23.1,155.8 55.4,122.7 9.6,129.4 50.6,107.8 5.0,100.0 50.6,92.2 9.6,70.6 55.4,77.3 23.1,44.2 64.6,64.6 44.2,23.1 77.3,55.4 70.6,9.6 92.2,50.6"/>
</svg>
