<?xml version="1.0" encoding="UTF-8" standalone="no"?>
<svg width="200" height="200" viewBox="0 0 200 200" xmlns="http://www.w3.org/2000/svg">
  <!-- U : étoile à 21 pics -->
  <polygon fill="black" points="100.0,5.0 107.5,50.6 128.0,9.2 121.7,55.0 153.5,21.5 134.0,63.3 174.3,40.8 143.3,75.0 188.4,65.3 148.7,88.9 194.7,92.9 149.9,103.7 192.6,121.1 146.5,118.3 182.3,147.5 139.1,131.2 164.6,169.6 128.2,141.3 141.2,185.6 114.7,147.8 114.2,193.9 100.0,150.0 85.8,193.9 85.3,147.8 58.8,185.6 71.8,141.3 35.4,169.6 60.9,131.2 17.7,147.5 53.5,118.3 7.4,121.1 50.1,103.7 5.3,92.9 51.3,88.9 11.6,65.3 56.7,75.0 25.7,40.8 66.0,63.3 46.5,21.5 78.3,55.0 72.0,9.2 92.5,50.6"/>
</svg>
