<?xml version="1.0" encoding="UTF-8" standalone="no"?>
<svg width="200" height="200" viewBox="0 0 200 200" xmlns="http://www.w3.org/2000/svg">
  <!-- V : étoile à 22 pics -->
  <polygon fill="black" points="100.0,5.0 107.1,50.5 126.8,8.8 120.8,54.5 151.4,20.1 132.7,62.2 171.8,37.8 142.1,73.0 186.4,60.5 148.0,85.9 194.0,86.5 150.0,100.0 194.0,113.5 148.0,114.1 186.4,139.5 142.1,127.0 171.8,162.2 132.7,137.8 151.4,179.9 120.8,145.5 126.8,191.2 107.1,149.5 100.0,195.0 92.9,149.5 73.2,191.2 79.2,145.5 48.6,179.9 67.3,137.8 28.2,162.2 57.9,127.0 13.6,139.5 52.0,114.1 6.0,113.5 50.0,100.0 6.0,86.5 52.0,85.9 13.6,60.5 57.9,73.0 28.2,37.8 67.3,62.2 48.6,20.1 79.2,54.5 73.2,8.8 92.9,50.5"/>
</svg>
