<?xml version="1.0" encoding="UTF-8" standalone="no"?>
<svg width="200" height="200" viewBox="0 0 200 200" xmlns="http://www.w3.org/2000/svg">
  <!-- W : étoile à 23 pics -->
  <polygon fill="black" points="100.0,5.0 106.8,50.5 125.6,8.5 119.9,54.1 149.4,18.8 131.6,61.2 169.4,35.2 140.8,71.2 184.3,56.3 147.1,83.3 193.0,80.7 149.9,96.6 194.8,106.5 149.0,110.2 189.5,131.8 144.4,123.0 177.6,154.8 136.5,134.1 160.0,173.7 126.0,142.7 137.8,187.1 113.5,148.1 112.9,194.1 100.0,150.0 87.1,194.1 86.5,148.1 62.2,187.1 74.0,142.7 40.0,173.7 63.5,134.1 22.4,154.8 55.6,123.0 10.5,131.8 51.0,110.2 5.2,106.5 50.1,96.6 7.0,80.7 52.9,83.3 15.7,56.3 59.2,71.2 30.6,35.2 68.4,61.2 50.6,18.8 80.1,54.1 74.4,8.5 93.2,50.5"/>
</svg>
