<?xml version="1.0" encoding="UTF-8" standalone="no"?>
<svg width="200" height="200" viewBox="0 0 200 200" xmlns="http://www.w3.org/2000/svg">
  <!-- X : étoile à 24 pics -->
  <polygon fill="black" points="100.0,5.0 106.5,50.4 124.6,8.2 119.1,53.8 147.5,17.7 130.4,60.3 167.2,32.8 139.7,69.6 182.3,52.5 146.2,80.9 191.8,75.4 149.6,93.5 195.0,100.0 149.6,106.5 191.8,124.6 146.2,119.1 182.3,147.5 139.7,130.4 167.2,167.2 130.4,139.7 147.5,182.3 119.1,146.2 124.6,191.8 106.5,149.6 100.0,195.0 93.5,149.6 75.4,191.8 80.9,146.2 52.5,182.3 69.6,139.7 32.8,167.2 60.3,130.4 17.7,147.5 53.8,119.1 8.2,124.6 50.4,106.5 5.0,100.0 50.4,93.5 8.2,75.4 53.8,80.9 17.7,52.5 60.3,69.6 32.8,32.8 69.6,60.3 52.5,17.7 80.9,53.8 75.4,8.2 93.5,50.4"/>
</svg>
