<?xml version="1.0" encoding="UTF-8" standalone="no"?>
<svg width="200" height="200" viewBox="0 0 200 200" xmlns="http://www.w3.org/2000/svg">
  <!-- Y : étoile à 25 pics -->
  <polygon fill="black" points="100.0,5.0 106.3,50.4 123.6,8.0 118.4,53.5 145.8,16.8 129.4,59.5 165.0,30.7 138.5,68.1 180.2,49.1 145.2,78.7 190.4,70.6 149.1,90.6 194.8,94.0 149.9,103.1 193.3,117.8 147.6,115.5 186.0,140.4 142.2,126.8 173.2,160.6 134.2,136.4 155.8,176.9 124.1,143.8 135.0,188.3 112.4,148.4 111.9,194.3 100.0,150.0 88.1,194.3 87.6,148.4 65.0,188.3 75.9,143.8 44.2,176.9 65.8,136.4 26.8,160.6 57.8,126.8 14.0,140.4 52.4,115.5 6.7,117.8 50.1,103.1 5.2,94.0 50.9,90.6 9.6,70.6 54.8,78.7 19.8,49.1 61.5,68.1 35.0,30.7 70.6,59.5 54.2,16.8 81.6,53.5 76.4,8.0 93.7,50.4"/>
</svg>
