<?xml version="1.0" encoding="UTF-8" standalone="no"?>
<svg width="200" height="200" viewBox="0 0 200 200" xmlns="http://www.w3.org/2000/svg">
  <!-- Z : étoile à 26 pics -->
  <polygon fill="black" points="100.0,5.0 106.0,50.4 122.7,7.8 117.7,53.2 144.1,15.9 128.4,58.9 163.0,28.9 137.4,66.8 178.2,46.0 144.3,76.8 188.8,66.3 148.5,88.0 194.3,88.5 150.0,100.0 194.3,111.5 148.5,112.0 188.8,133.7 144.3,123.2 178.2,154.0 137.4,133.2 163.0,171.1 128.4,141.1 144.1,184.1 117.7,146.8 122.7,192.2 106.0,149.6 100.0,195.0 94.0,149.6 77.3,192.2 82.3,146.8 55.9,184.1 71.6,141.1 37.0,171.1 62.6,133.2 21.8,154.0 55.7,123.2 11.2,133.7 51.5,112.0 5.7,111.5 50.0,100.0 5.7,88.5 51.5,88.0 11.2,66.3 55.7,76.8 21.8,46.0 62.6,66.8 37.0,28.9 71.6,58.9 55.9,15.9 82.3,53.2 77.3,7.8 94.0,50.4"/>
</svg>
