<?xml version="1.0" encoding="UTF-8" standalone="no"?>
<!-- Created with Inkscape (http://www.inkscape.org/) -->

<svg
   width="210mm"
   height="60mm"
   viewBox="0 0 210 60"
   version="1.1"
   id="svg1"
   xml:space="preserve"
   inkscape:version="1.4.2 (ebf0e940, 2025-05-08)"
   sodipodi:docname="logo.svg"
   xmlns:inkscape="http://www.inkscape.org/namespaces/inkscape"
   xmlns:sodipodi="http://sodipodi.sourceforge.net/DTD/sodipodi-0.dtd"
   xmlns="http://www.w3.org/2000/svg"
   xmlns:svg="http://www.w3.org/2000/svg"><sodipodi:namedview
     id="namedview1"
     pagecolor="#ffffff"
     bordercolor="#000000"
     borderopacity="0.25"
     inkscape:showpageshadow="2"
     inkscape:pageopacity="0.0"
     inkscape:pagecheckerboard="0"
     inkscape:deskcolor="#d1d1d1"
     inkscape:document-units="mm"
     inkscape:zoom="0.84"
     inkscape:cx="397.02381"
     inkscape:cy="333.33333"
     inkscape:window-width="1696"
     inkscape:window-height="1381"
     inkscape:window-x="63"
     inkscape:window-y="31"
     inkscape:window-maximized="0"
     inkscape:current-layer="layer1" /><defs
     id="defs1"><rect
       x="105.68818"
       y="330.41461"
       width="571.82867"
       height="161.31354"
       id="rect1" /></defs><g
     inkscape:label="Calque 1"
     inkscape:groupmode="layer"
     id="layer1"><text
       xml:space="preserve"
       style="font-style:normal;font-variant:normal;font-weight:bold;font-stretch:normal;font-size:33.5264px;font-family:sans-serif;-inkscape-font-specification:'sans-serif Bold';text-align:start;writing-mode:lr-tb;direction:ltr;text-anchor:start;fill:#0ea5e9;fill-opacity:1;stroke-width:7.8577"
       x="86.862373"
       y="64.012947"
       id="text17"
       transform="scale(1.1433145,0.87464998)"><tspan
         sodipodi:role="line"
         id="tspan17"
         style="font-style:normal;font-variant:normal;font-weight:bold;font-stretch:normal;font-family:Orbitron;-inkscape-font-specification:'Orbitron Bold';fill:#0ea5e9;fill-opacity:1;stroke-width:7.8577"
         x="86.862373"
         y="64.012947">I</tspan></text><text
       xml:space="preserve"
       style="font-style:normal;font-variant:normal;font-weight:bold;font-stretch:normal;font-size:29.8612px;font-family:sans-serif;-inkscape-font-specification:'sans-serif Bold';text-align:start;writing-mode:lr-tb;direction:ltr;text-anchor:start;fill:#0ea5e9;fill-opacity:1;stroke-width:6.99871"
       x="80.734894"
       y="66.181305"
       id="text17-7"
       transform="scale(1.2836446,0.77903181)"><tspan
         sodipodi:role="line"
         id="tspan17-1"
         style="font-style:normal;font-variant:normal;font-weight:bold;font-stretch:normal;font-family:Orbitron;-inkscape-font-specification:'Orbitron Bold';fill:#0ea5e9;fill-opacity:1;stroke-width:6.99871"
         x="80.734894"
         y="66.181305">I</tspan></text><path
       style="font-weight:900;font-size:64px;font-family:orbitron;-inkscape-font-specification:'orbitron Heavy';white-space:pre;fill:#0ea5e9;stroke-width:6.18973"
       d="m 97.633215,10.27434 h 16.796475 q 2.41649,0 4.1199,1.743032 1.74304,1.703416 1.74304,4.119891 v 16.796484 q 0,2.416474 -1.74304,4.159506 -1.70341,1.703409 -4.1199,1.703409 H 97.633215 q -2.456088,0 -4.159506,-1.703409 -1.703416,-1.703418 -1.703416,-4.159506 V 16.137263 q 0,-2.456088 1.703416,-4.159507 1.703418,-1.703416 4.159506,-1.703416 z m 0.277302,6.179838 V 32.616831 H 114.07316 V 16.454178 Z"
       id="path16" /><path
       style="font-weight:bold;font-size:11.2889px;font-family:sans-serif;-inkscape-font-specification:'sans-serif Bold';fill:#333333;fill-opacity:1;stroke-width:4.51026"
       d="m 101.10726,36.100474 q 0,-1.934264 1.41868,-3.29745 1.42827,-1.363185 3.44128,-1.363185 2.01301,0 3.43171,1.363185 1.42827,1.363186 1.42827,3.29745 0,1.934241 -1.42827,3.297422 -1.4187,1.363186 -3.43171,1.363186 -2.01301,0 -3.44128,-1.363186 -1.41868,-1.363181 -1.41868,-3.297422 z"
       id="path14" /><path
       d="m 19.599719,20.722968 v 0.66024 h -3.459658 v -0.66024 q 0,-0.184867 -0.184867,-0.184867 H 7.6889894 q -0.1848672,0 -0.1848672,0.184867 v 2.112768 q 0,0.158458 0.1848672,0.158458 h 8.2662046 q 1.531757,0 2.588141,1.082794 1.056384,1.056384 1.056384,2.561731 v 2.112768 q 0,1.505347 -1.056384,2.58814 -1.056384,1.056384 -2.588141,1.056384 H 7.6889894 q -1.5053471,0 -2.5881407,-1.056384 -1.056384,-1.082793 -1.056384,-2.58814 v -0.66024 h 3.4596575 v 0.66024 q 0,0.184867 0.1848672,0.184867 h 8.2662046 q 0.184867,0 0.184867,-0.184867 v -2.112768 q 0,-0.158458 -0.184867,-0.158458 H 7.6889894 q -1.5053471,0 -2.5881407,-1.056384 -1.056384,-1.082793 -1.056384,-2.588141 v -2.112768 q 0,-1.505347 1.056384,-2.561731 1.0827936,-1.082793 2.5881407,-1.082793 h 8.2662046 q 1.531757,0 2.588141,1.082793 1.056384,1.056384 1.056384,2.561731 z m 5.730908,8.213386 h 11.910729 v 3.459657 H 25.330627 q -1.505347,0 -2.588141,-1.056384 -1.056384,-1.082793 -1.056384,-2.58814 v -8.028519 q 0,-1.505347 1.056384,-2.561731 1.082794,-1.082793 2.588141,-1.082793 h 11.85791 v 3.459657 h -11.85791 q -0.184868,0 -0.184868,0.184867 v 8.028519 q 0,0.184867 0.184868,0.184867 z M 43.07785,17.078444 h 8.266204 q 1.505347,0 2.561731,1.082793 1.082794,1.056384 1.082794,2.561731 v 8.028519 q 0,1.505347 -1.082794,2.58814 -1.056384,1.056384 -2.561731,1.056384 H 43.07785 q -1.505348,0 -2.588141,-1.056384 -1.056384,-1.082793 -1.056384,-2.58814 v -8.028519 q 0,-1.505347 1.056384,-2.561731 1.082793,-1.082793 2.588141,-1.082793 z m 8.266204,3.459657 H 43.07785 q -0.184868,0 -0.184868,0.184867 v 8.028519 q 0,0.184867 0.184868,0.184867 h 8.266204 q 0.184867,0 0.184867,-0.184867 v -8.028519 q 0,-0.184867 -0.184867,-0.184867 z m 17.852883,-3.459657 h 3.459657 v 11.673043 q 0,1.505347 -1.082793,2.58814 -1.056384,1.056384 -2.561731,1.056384 h -8.266205 q -1.531757,0 -2.588141,-1.056384 -1.056384,-1.082793 -1.056384,-2.58814 V 17.078444 h 3.459658 v 11.673043 q 0,0.184867 0.184867,0.184867 h 8.266205 q 0.184867,0 0.184867,-0.184867 z m 15.079853,3.459657 h -5.968569 v 8.213386 q 0,0.184867 0.184867,0.184867 h 5.783702 v 3.459657 h -5.783702 q -1.531757,0 -2.588141,-1.056384 -1.056384,-1.082793 -1.056384,-2.58814 V 12.06062 h 3.459658 v 5.017824 h 5.968569 z"
       id="text18"
       style="font-weight:bold;font-size:26.4096px;font-family:Orbitron;-inkscape-font-specification:'Orbitron Bold';fill:#0ea5e9;stroke-width:6.18973"
       aria-label="scout " /><path
       d="m 132.47671,28.936354 h 11.91073 v 3.459657 h -11.91073 q -1.50534,0 -2.58814,-1.056384 -1.05638,-1.082793 -1.05638,-2.58814 v -8.028519 q 0,-1.505347 1.05638,-2.561731 1.0828,-1.082793 2.58814,-1.082793 h 11.85791 v 3.459657 h -11.85791 q -0.18486,0 -0.18486,0.184867 v 8.028519 q 0,0.184867 0.18486,0.184867 z m 20.22311,-11.85791 h 8.26621 q 1.50535,0 2.56173,1.082793 1.08279,1.056384 1.08279,2.561731 v 8.028519 q 0,1.505347 -1.08279,2.58814 -1.05638,1.056384 -2.56173,1.056384 h -8.26621 q -1.50534,0 -2.58814,-1.056384 -1.05638,-1.082793 -1.05638,-2.58814 v -8.028519 q 0,-1.505347 1.05638,-2.561731 1.0828,-1.082793 2.58814,-1.082793 z m 8.26621,3.459657 h -8.26621 q -0.18486,0 -0.18486,0.184867 v 8.028519 q 0,0.184867 0.18486,0.184867 h 8.26621 q 0.18487,0 0.18487,-0.184867 v -8.028519 q 0,-0.184867 -0.18487,-0.184867 z m 20.22313,-8.477481 h 3.45965 v 20.335391 h -11.93714 q -1.50534,0 -2.58814,-1.056384 -1.05638,-1.082793 -1.05638,-2.58814 v -8.028519 q 0,-1.505347 1.05638,-2.561731 1.0828,-1.082793 2.58814,-1.082793 h 8.47749 z m -8.47749,16.875734 h 8.29262 q 0.18487,0 0.18487,-0.184867 v -8.028519 q 0,-0.184867 -0.18487,-0.184867 h -8.29262 q -0.15845,0 -0.15845,0.184867 v 8.028519 q 0,0.184867 0.15845,0.184867 z M 201.201,17.078444 q 1.50534,0 2.56173,1.082793 1.08279,1.056384 1.08279,2.561731 v 5.757293 h -12.09559 v 2.271226 q 0,0.184867 0.18486,0.184867 h 11.91073 v 3.459657 h -11.91073 q -1.50534,0 -2.58814,-1.056384 -1.05638,-1.082793 -1.05638,-2.58814 v -8.028519 q 0,-1.505347 1.05638,-2.561731 1.0828,-1.082793 2.58814,-1.082793 z m -8.45107,5.91575 h 8.63593 v -2.271226 q 0,-0.184867 -0.18486,-0.184867 h -8.26621 q -0.18486,0 -0.18486,0.184867 z"
       id="text19"
       style="font-weight:bold;font-size:26.4096px;font-family:Orbitron;-inkscape-font-specification:'Orbitron Bold';letter-spacing:2.47589px;fill:#0ea5e9;stroke-width:6.18973"
       aria-label="code" /></g></svg>
