<svg viewBox="0 0 1130 1000" xmlns="http://www.w3.org/2000/svg">
  <!-- Lignes horizontales (de haut en bas) -->
  <!-- y=101 (ligne 1 - utilisée par z) -->
  <path d="M140 101h840v40H140v-40z" fill="#e74c3c" opacity="0.7"/>

  <!-- y=141 (ligne 2 - utilisée par z) -->
  <path d="M140 141h840v40H140v-40z" fill="#e67e22" opacity="0.7"/>

  <!-- y=254 (ligne 3 - utilisée par u,v,w,x,y,z) -->
  <path d="M140 254h840v40H140v-40z" fill="#f1c40f" opacity="0.7"/>

  <!-- y=402 (ligne 4 - utilisée par o,p,q,r,s,t,u,v,w,x,y,z) -->
  <path d="M140 402h840v40H140v-40z" fill="#2ecc71" opacity="0.7"/>

  <!-- y=553 (ligne 5 - utilisée par j,k,l,m,n,o,p,q,r,s,t,u,v,w,x,y,z) -->
  <path d="M140 553h840v40H140v-40z" fill="#1abc9c" opacity="0.7"/>

  <!-- y=701 (ligne 6 - utilisée par e,f,g,h,i,j,k,l,m,n,o,p,q,r,s,t,u,v,w,x,y,z) -->
  <path d="M140 701h840v40H140v-40z" fill="#3498db" opacity="0.7"/>

  <!-- y=855 (ligne de base - utilisée par tous) -->
  <path d="M140 855h840v42H140v-42z" fill="#9b59b6" opacity="0.7"/>

  <!-- Lignes verticales (de gauche à droite) -->
  <!-- x=140 - bord gauche -->
  <path d="M140 30v825h44V30h-44z" fill="#34495e" opacity="0.5"/>

  <!-- x=281/285 - colonne 1 -->
  <path d="M281 30v825h44V30h-44z" fill="#7f8c8d" opacity="0.5"/>

  <!-- x=421/425 - colonne 2 -->
  <path d="M421 30v825h44V30h-44z" fill="#95a5a6" opacity="0.5"/>

  <!-- x=561/565 - colonne centrale -->
  <path d="M561 30v825h44V30h-44z" fill="#bdc3c7" opacity="0.5"/>

  <!-- x=701/705 - colonne 3 -->
  <path d="M701 30v825h44V30h-44z" fill="#95a5a6" opacity="0.5"/>

  <!-- x=841/845 - colonne 4 -->
  <path d="M841 30v825h44V30h-44z" fill="#7f8c8d" opacity="0.5"/>

  <!-- x=980 - bord droit -->
  <path d="M936 30v825h44V30h-44z" fill="#34495e" opacity="0.5"/>
</svg>
