<svg viewBox="0 0 1130 1000" xmlns="http://www.w3.org/2000/svg"><path d="M841 29v372h-96V29h-44v372h-96V29h-44v372h-97V29h-43v372h-96V29h-44v372H141v40h140v111H140v40h141v108H140v40h141v114H140v42h840v-42h-96V740h96v-40h-96V592h96v-40h-96V441h97v-40h-97V29h-43zM561 740v114h-97V740h97zm-140 0v114h-96V740h96zm280 0v114h-96V740h96zm140 0v114h-96V740h96zM561 441v111h-97V441h97zm140 0v111h-96V441h96zm-280 0v111h-96V441h96zm420 0v111h-96V441h96zM561 592v108h-97V592h97zm-140 0v108h-96V592h96zm280 0v108h-96V592h96zm140 0v108h-96V592h96z"/></svg>